<mxfile host="app.diagrams.net" modified="2022-05-09T14:10:53.121Z" agent="5.0 (Windows NT 10.0; Win64; x64) AppleWebKit/537.36 (KHTML, like Gecko) Chrome/101.0.4951.54 Safari/537.36 Edg/101.0.1210.39" etag="QuU0jVi8I5UxTQi_oGVJ" version="18.0.1" type="github">
  <diagram id="N6ZqDlmnMOkKJJKNMazh" name="Page-1">
    <mxGraphModel dx="1038" dy="579" grid="1" gridSize="10" guides="1" tooltips="1" connect="1" arrows="1" fold="1" page="1" pageScale="1" pageWidth="850" pageHeight="1100" math="0" shadow="0">
      <root>
        <mxCell id="0" />
        <mxCell id="1" parent="0" />
        <mxCell id="RgaQy4yWBSjkRrqmD8XD-3" value="" style="edgeStyle=orthogonalEdgeStyle;rounded=0;orthogonalLoop=1;jettySize=auto;html=1;" edge="1" parent="1" source="RgaQy4yWBSjkRrqmD8XD-1" target="RgaQy4yWBSjkRrqmD8XD-2">
          <mxGeometry relative="1" as="geometry" />
        </mxCell>
        <mxCell id="RgaQy4yWBSjkRrqmD8XD-1" value="start" style="rounded=1;whiteSpace=wrap;html=1;" vertex="1" parent="1">
          <mxGeometry x="40" y="40" width="90" height="20" as="geometry" />
        </mxCell>
        <mxCell id="RgaQy4yWBSjkRrqmD8XD-5" value="yes" style="edgeStyle=orthogonalEdgeStyle;rounded=0;orthogonalLoop=1;jettySize=auto;html=1;" edge="1" parent="1" source="RgaQy4yWBSjkRrqmD8XD-2" target="RgaQy4yWBSjkRrqmD8XD-4">
          <mxGeometry relative="1" as="geometry" />
        </mxCell>
        <mxCell id="RgaQy4yWBSjkRrqmD8XD-9" value="NO" style="edgeStyle=orthogonalEdgeStyle;rounded=0;orthogonalLoop=1;jettySize=auto;html=1;" edge="1" parent="1" source="RgaQy4yWBSjkRrqmD8XD-2" target="RgaQy4yWBSjkRrqmD8XD-8">
          <mxGeometry relative="1" as="geometry">
            <Array as="points">
              <mxPoint x="170" y="150" />
              <mxPoint x="170" y="150" />
            </Array>
          </mxGeometry>
        </mxCell>
        <mxCell id="RgaQy4yWBSjkRrqmD8XD-2" value="IF sight,attack and clsnrad not undefined" style="rhombus;whiteSpace=wrap;html=1;" vertex="1" parent="1">
          <mxGeometry x="45" y="110" width="80" height="80" as="geometry" />
        </mxCell>
        <mxCell id="RgaQy4yWBSjkRrqmD8XD-7" value="" style="edgeStyle=orthogonalEdgeStyle;rounded=0;orthogonalLoop=1;jettySize=auto;html=1;" edge="1" parent="1" source="RgaQy4yWBSjkRrqmD8XD-4" target="RgaQy4yWBSjkRrqmD8XD-6">
          <mxGeometry relative="1" as="geometry" />
        </mxCell>
        <mxCell id="RgaQy4yWBSjkRrqmD8XD-4" value="call&amp;nbsp;getAgentNeighbors" style="rounded=1;whiteSpace=wrap;html=1;fillColor=#d5e8d4;gradientColor=#97d077;strokeColor=#82b366;" vertex="1" parent="1">
          <mxGeometry x="25" y="230" width="120" height="60" as="geometry" />
        </mxCell>
        <mxCell id="RgaQy4yWBSjkRrqmD8XD-13" value="" style="edgeStyle=orthogonalEdgeStyle;rounded=0;orthogonalLoop=1;jettySize=auto;html=1;" edge="1" parent="1" source="RgaQy4yWBSjkRrqmD8XD-6" target="RgaQy4yWBSjkRrqmD8XD-12">
          <mxGeometry relative="1" as="geometry" />
        </mxCell>
        <mxCell id="RgaQy4yWBSjkRrqmD8XD-6" value="parse the neighbour agent list and return it" style="rounded=0;whiteSpace=wrap;html=1;" vertex="1" parent="1">
          <mxGeometry x="25" y="330" width="120" height="60" as="geometry" />
        </mxCell>
        <mxCell id="RgaQy4yWBSjkRrqmD8XD-11" value="" style="edgeStyle=orthogonalEdgeStyle;rounded=0;orthogonalLoop=1;jettySize=auto;html=1;" edge="1" parent="1" source="RgaQy4yWBSjkRrqmD8XD-8" target="RgaQy4yWBSjkRrqmD8XD-10">
          <mxGeometry relative="1" as="geometry" />
        </mxCell>
        <mxCell id="RgaQy4yWBSjkRrqmD8XD-8" value="ELSE" style="rhombus;whiteSpace=wrap;html=1;" vertex="1" parent="1">
          <mxGeometry x="205" y="110" width="80" height="80" as="geometry" />
        </mxCell>
        <mxCell id="RgaQy4yWBSjkRrqmD8XD-14" value="" style="edgeStyle=orthogonalEdgeStyle;rounded=0;orthogonalLoop=1;jettySize=auto;html=1;" edge="1" parent="1" source="RgaQy4yWBSjkRrqmD8XD-10" target="RgaQy4yWBSjkRrqmD8XD-12">
          <mxGeometry relative="1" as="geometry" />
        </mxCell>
        <mxCell id="RgaQy4yWBSjkRrqmD8XD-10" value="User console" style="whiteSpace=wrap;html=1;" vertex="1" parent="1">
          <mxGeometry x="185" y="230" width="120" height="60" as="geometry" />
        </mxCell>
        <mxCell id="RgaQy4yWBSjkRrqmD8XD-12" value="end" style="ellipse;whiteSpace=wrap;html=1;rounded=0;" vertex="1" parent="1">
          <mxGeometry x="185" y="330" width="120" height="60" as="geometry" />
        </mxCell>
      </root>
    </mxGraphModel>
  </diagram>
</mxfile>
